<svg xmlns="http://www.w3.org/2000/svg" viewBox="0 0 32 32">
  <defs>
    <linearGradient id="bg" x1="0%" y1="0%" x2="100%" y2="100%">
      <stop offset="0%" stop-color="#0a0f0a"/>
      <stop offset="100%" stop-color="#141a14"/>
    </linearGradient>
    <linearGradient id="accent" x1="0%" y1="0%" x2="100%" y2="100%">
      <stop offset="0%" stop-color="#22c55e"/>
      <stop offset="50%" stop-color="#10b981"/>
      <stop offset="100%" stop-color="#d97706"/>
    </linearGradient>
    <linearGradient id="glow" x1="0%" y1="0%" x2="100%" y2="100%">
      <stop offset="0%" stop-color="#22c55e" stop-opacity="0.3"/>
      <stop offset="100%" stop-color="#10b981" stop-opacity="0.1"/>
    </linearGradient>
  </defs>
  <!-- Background rounded square -->
  <rect width="32" height="32" rx="6" ry="6" fill="url(#bg)"/>
  <rect width="32" height="32" rx="6" ry="6" fill="none" stroke="url(#accent)" stroke-width="0.8" stroke-opacity="0.4"/>
  <!-- Stylized "A" with upward arrow motif -->
  <path d="M16 5 L24 25 L21 25 L19 19 L13 19 L11 25 L8 25 Z M16 10 L13.8 17.5 L18.2 17.5 Z" fill="url(#accent)"/>
  <!-- Small arrow accent at top of A -->
  <path d="M16 4 L18.5 7.5 L17 7.5 L17 9 L15 9 L15 7.5 L13.5 7.5 Z" fill="#22c55e" opacity="0.9"/>
  <!-- Subtle data dots suggesting scale/tech -->
  <circle cx="6" cy="8" r="1" fill="#22c55e" opacity="0.5"/>
  <circle cx="26" cy="8" r="0.8" fill="#d97706" opacity="0.4"/>
  <circle cx="5" cy="28" r="0.6" fill="#10b981" opacity="0.3"/>
</svg>
